<svg width="14" height="16" viewBox="0 0 14 16" fill="none" xmlns="http://www.w3.org/2000/svg">
<g id="Group">
<path id="Vector" d="M1 6.66671C1 4.15271 1 2.89537 1.78133 2.11471C2.562 1.33337 3.81933 1.33337 6.33333 1.33337H7.66667C10.1807 1.33337 11.438 1.33337 12.2187 2.11471C13 2.89537 13 4.15271 13 6.66671V9.33337C13 11.8474 13 13.1047 12.2187 13.8854C11.438 14.6667 10.1807 14.6667 7.66667 14.6667H6.33333C3.81933 14.6667 2.562 14.6667 1.78133 13.8854C1 13.1047 1 11.8474 1 9.33337V6.66671Z" stroke="white" stroke-width="1.5"/>
<path id="Vector_2" d="M4.33333 6.66675H9.66666M4.33333 9.33341H7.66666" stroke="white" stroke-width="1.5" stroke-linecap="round"/>
</g>
</svg>
